<svg xmlns="http://www.w3.org/2000/svg" viewBox="0 0 64 64" id="sql-file"><path d="M12 14v-2L2 19h10v-5zM17 14h30v5H17z"></path><path d="M12 19h5v-5h30v5h5V3H12v16zM40 8zm3 3zM52 14v5h10l-10-7v2zM47 50H17v-5h-5v16h40V45h-5zm-23 6zm-3-3z"></path><path d="M17 45h30v5H17zM47 19H2v26h60V19H47zM19 32h4a2 2 0 0 1 2 2v4a2 2 0 0 1-2 2 2 2 0 0 0 2-2v-4a2 2 0 0 0-2-2h-4a2 2 0 0 1-2-2v-4a2 2 0 0 1 2-2 2 2 0 0 0-2 2v4a2 2 0 0 0 2 2zm17 6a1.994 1.994 0 0 1-.586 1.414L36 40l-.586-.586A1.994 1.994 0 0 1 34 40h-4a2 2 0 0 1-2-2V26a2 2 0 0 1 2-2h4a2 2 0 0 1 2 2zm3 2z"></path><path d="M34 24h-4a2 2 0 0 0-2 2v12a2 2 0 0 0 2 2h4a1.994 1.994 0 0 0 1.414-.586L34 38l1.414 1.414A1.994 1.994 0 0 0 36 38V26a2 2 0 0 0-2-2z"></path><path fill="#fff" d="M21 10h22v2H21zM24 7h16v2H24zM21 52h22v2H21zM24 55h16v2H24z"></path><path fill="#fff" d="M62.983 18.917a.985.985 0 0 0-.04-.2.826.826 0 0 0-.17-.327.953.953 0 0 0-.142-.149c-.022-.018-.034-.044-.058-.06L53 11.479V3a1 1 0 0 0-1-1H12a1 1 0 0 0-1 1v8.479l-9.573 6.7c-.024.016-.036.042-.058.06a1 1 0 0 0-.142.149.844.844 0 0 0-.17.327.971.971 0 0 0-.04.2A.815.815 0 0 0 1 19v26a1 1 0 0 0 1 1h9v15a1 1 0 0 0 1 1h40a1 1 0 0 0 1-1V46h9a1 1 0 0 0 1-1V19a.815.815 0 0 0-.017-.083zM58.828 18H53v-4.079zM51 4v14h-3v-4a1 1 0 0 0-1-1H17a1 1 0 0 0-1 1v4h-3V4zM18 18v-3h28v3zm-7 0H5.172L11 13.921zm40 42H13V46h3v4a1 1 0 0 0 1 1h30a1 1 0 0 0 1-1v-4h3zm-5-14v3H18v-3zm15-2H3V20h58z"></path><path fill="#fff" d="M19 25h6a1 1 0 0 0 0-2h-6a3 3 0 0 0-3 3v4a3 3 0 0 0 3 3h4a1 1 0 0 1 1 1v4a1 1 0 0 1-1 1h-6a1 1 0 0 0 0 2h6a3 3 0 0 0 3-3v-4a3 3 0 0 0-3-3h-4a1 1 0 0 1-1-1v-4a1 1 0 0 1 1-1zM47 39h-7V24a1 1 0 0 0-2 0v16a1 1 0 0 0 1 1h8a1 1 0 0 0 0-2zM37 26a3 3 0 0 0-3-3h-4a3 3 0 0 0-3 3v12a3 3 0 0 0 3 3h4a2.951 2.951 0 0 0 1.285-.3l.008.008a1 1 0 0 0 1.414-1.414l-.008-.008A2.951 2.951 0 0 0 37 38zm-2.293 11.293a1 1 0 0 0-1.414 1.414l.293.293H30a1 1 0 0 1-1-1V26a1 1 0 0 1 1-1h4a1 1 0 0 1 1 1v11.586z"></path></svg>